<svg width="1659" height="1659" xmlns="http://www.w3.org/2000/svg" xmlns:xlink="http://www.w3.org/1999/xlink" overflow="hidden"><defs><clipPath id="clip0"><rect x="1008" y="183" width="1659" height="1659"/></clipPath><clipPath id="clip1"><rect x="1008" y="183" width="1657" height="1657"/></clipPath><clipPath id="clip2"><rect x="1008" y="183" width="1657" height="1657"/></clipPath><clipPath id="clip3"><rect x="1008" y="183" width="1657" height="1657"/></clipPath></defs><g clip-path="url(#clip0)" transform="translate(-1008 -183)"><path d="M1057 1011.5C1057 580.994 1405.99 232 1836.5 232 2267.01 232 2616 580.994 2616 1011.5 2616 1442.01 2267.01 1791 1836.5 1791 1405.99 1791 1057 1442.01 1057 1011.5Z" fill="#000000" fill-rule="evenodd" fill-opacity="1"/><g clip-path="url(#clip1)"><g clip-path="url(#clip2)"><g clip-path="url(#clip3)"><path d="M1836.5 356.396C1474.47 356.396 1181.4 649.469 1181.4 1011.5 1181.4 1373.53 1474.47 1666.6 1836.5 1666.6 2198.53 1666.6 2491.6 1373.53 2491.6 1011.5 2491.6 649.469 2198.53 356.396 1836.5 356.396ZM1836.5 1494.21C1788.23 1494.21 1750.3 1456.28 1750.3 1408.01 1750.3 1359.74 1788.23 1321.81 1836.5 1321.81 1884.77 1321.81 1922.7 1359.74 1922.7 1408.01 1922.7 1456.28 1884.77 1494.21 1836.5 1494.21ZM1888.22 1094.25C1888.22 1139.07 1888.22 1252.85 1888.22 1252.85L1784.78 1252.85 1784.78 994.26 1836.5 994.26C1952.01 994.26 2026.14 927.026 2026.14 821.865 2026.14 713.255 1945.11 632.229 1836.5 632.229 1717.55 632.229 1646.86 702.911 1646.86 821.865L1543.43 821.865C1543.43 646.021 1660.66 528.792 1836.5 528.792 2000.28 528.792 2129.57 658.089 2129.57 821.865 2129.57 968.401 2033.03 1073.56 1888.22 1094.25Z" fill="#EBBB1F" fill-rule="nonzero" fill-opacity="1"/></g></g></g></g></svg>