<svg width="1742" height="1746" xmlns="http://www.w3.org/2000/svg" xmlns:xlink="http://www.w3.org/1999/xlink" overflow="hidden"><defs><clipPath id="clip0"><rect x="939" y="293" width="1742" height="1746"/></clipPath><clipPath id="clip1"><rect x="1978" y="1295" width="514" height="514"/></clipPath><clipPath id="clip2"><rect x="1978" y="1295" width="514" height="514"/></clipPath><clipPath id="clip3"><rect x="1978" y="1295" width="514" height="514"/></clipPath></defs><g clip-path="url(#clip0)" transform="translate(-939 -293)"><path d="M943 450.979C943 364.282 1013.28 294 1099.98 294L2520.02 294C2606.72 294 2677 364.282 2677 450.979L2677 1882.02C2677 1968.72 2606.72 2039 2520.02 2039L1099.98 2039C1013.28 2039 943 1968.72 943 1882.02Z" fill="#E6771D" fill-rule="evenodd" fill-opacity="1"/><path d="M943 450.979C943 364.282 1013.28 294 1099.98 294L2520.02 294C2606.72 294 2677 364.282 2677 450.979L2677 1882.02C2677 1968.72 2606.72 2039 2520.02 2039L1099.98 2039C1013.28 2039 943 1968.72 943 1882.02Z" fill="#E6771D" fill-rule="evenodd" fill-opacity="1"/><path d="M1181 642.887C1181 579.989 1231.99 529 1294.89 529L2325.11 529C2388.01 529 2439 579.989 2439 642.887L2439 1690.11C2439 1753.01 2388.01 1804 2325.11 1804L1294.89 1804C1231.99 1804 1181 1753.01 1181 1690.11Z" fill="#000000" fill-rule="evenodd" fill-opacity="1"/><path d="M1181 642.887C1181 579.989 1231.99 529 1294.89 529L2325.11 529C2388.01 529 2439 579.989 2439 642.887L2439 1690.11C2439 1753.01 2388.01 1804 2325.11 1804L1294.89 1804C1231.99 1804 1181 1753.01 1181 1690.11Z" fill="#000000" fill-rule="evenodd" fill-opacity="1"/><path d="M1305 728.526C1305 677.978 1345.98 637 1396.53 637L2224.47 637C2275.02 637 2316 677.978 2316 728.526L2316 1604.47C2316 1655.02 2275.02 1696 2224.47 1696L1396.53 1696C1345.98 1696 1305 1655.02 1305 1604.47Z" fill="#E6771D" fill-rule="evenodd" fill-opacity="1"/><path d="M1305 728.526C1305 677.978 1345.98 637 1396.53 637L2224.47 637C2275.02 637 2316 677.978 2316 728.526L2316 1604.47C2316 1655.02 2275.02 1696 2224.47 1696L1396.53 1696C1345.98 1696 1305 1655.02 1305 1604.47Z" fill="#E6771D" fill-rule="evenodd" fill-opacity="1"/><path d="M1395.66 303.773 2662.38 1514.62 2213.21 1984.51 946.495 773.662Z" fill="#E6771D" fill-rule="nonzero" fill-opacity="1"/><path d="M1309.02 822.635C1367.75 797.641 1429.08 809.618 1446.01 849.386 1462.93 889.153 1429.04 941.653 1370.31 966.646 1311.58 991.64 1250.25 979.663 1233.32 939.895 1216.4 900.128 1250.29 847.628 1309.02 822.635Z" fill="#000000" fill-rule="evenodd" fill-opacity="1"/><rect x="1390" y="533" width="61.9999" height="346" fill="#000000" fill-opacity="1"/><path d="M1405.24 460.088C1410.38 448.956 1408.91 460.819 1431.65 492.502 1454.39 524.186 1537.29 564.893 1557.5 578.472 1577.72 592.05 1602.32 600.537 1608.3 638.52 1614.28 676.503 1603.94 713.5 1585.47 749 1579.84 711.215 1583.4 661.622 1552.84 629.207 1522.29 596.793 1425.16 587.011 1400.81 559.294 1376.47 531.577 1400.1 471.22 1405.24 460.088Z" fill="#000000" fill-rule="evenodd" fill-opacity="1"/><path d="M1520 1131C1520 978.017 1648.05 854 1806 854 1963.95 854 2092 978.017 2092 1131 2092 1283.98 1963.95 1408 1806 1408 1648.05 1408 1520 1283.98 1520 1131Z" fill="#000000" fill-rule="evenodd" fill-opacity="1"/><path d="M1676 1102.85 1777.85 1102.85 1777.85 1001 1834.15 1001 1834.15 1102.85 1936 1102.85 1936 1159.15 1834.15 1159.15 1834.15 1261 1777.85 1261 1777.85 1159.15 1676 1159.15Z" fill="#E6771D" fill-rule="evenodd" fill-opacity="1"/><g clip-path="url(#clip1)"><g clip-path="url(#clip2)"><g clip-path="url(#clip3)"><path d="M2101.67 1370.67 2368.33 1370.67 2368.33 1733.33 2101.67 1733.33 2101.67 1370.67ZM2069.67 1765.33 2400.33 1765.33 2400.33 1338.67 2069.67 1338.67 2069.67 1765.33Z" fill="#000000" fill-rule="nonzero" fill-opacity="1"/><path d="M2139 1402.67 2181.67 1402.67 2181.67 1445.33 2139 1445.33Z" fill="#000000" fill-rule="nonzero" fill-opacity="1"/><path d="M2224.33 1413.33 2331 1413.33 2331 1434.67 2224.33 1434.67Z" fill="#000000" fill-rule="nonzero" fill-opacity="1"/><path d="M2139 1488 2181.67 1488 2181.67 1530.67 2139 1530.67Z" fill="#000000" fill-rule="nonzero" fill-opacity="1"/><path d="M2224.33 1498.67 2331 1498.67 2331 1520 2224.33 1520Z" fill="#000000" fill-rule="nonzero" fill-opacity="1"/><path d="M2139 1573.33 2181.67 1573.33 2181.67 1616 2139 1616Z" fill="#000000" fill-rule="nonzero" fill-opacity="1"/><path d="M2224.33 1584 2331 1584 2331 1605.33 2224.33 1605.33Z" fill="#000000" fill-rule="nonzero" fill-opacity="1"/><path d="M2139 1658.67 2181.67 1658.67 2181.67 1701.33 2139 1701.33Z" fill="#000000" fill-rule="nonzero" fill-opacity="1"/><path d="M2224.33 1669.33 2331 1669.33 2331 1690.67 2224.33 1690.67Z" fill="#000000" fill-rule="nonzero" fill-opacity="1"/></g></g></g></g></svg>