<svg width="2636" height="2080" xmlns="http://www.w3.org/2000/svg" xmlns:xlink="http://www.w3.org/1999/xlink" overflow="hidden"><defs><clipPath id="clip0"><rect x="233" y="252" width="2636" height="2080"/></clipPath><clipPath id="clip1"><rect x="786" y="253" width="2080" height="2079"/></clipPath><clipPath id="clip2"><rect x="786" y="253" width="2080" height="2079"/></clipPath><clipPath id="clip3"><rect x="786" y="253" width="2080" height="2079"/></clipPath></defs><g clip-path="url(#clip0)" transform="translate(-233 -252)"><path d="M1014.5 1295.5C1014.5 847.045 1378.04 483.5 1826.5 483.5 2274.96 483.5 2638.5 847.045 2638.5 1295.5 2638.5 1743.96 2274.96 2107.5 1826.5 2107.5 1378.04 2107.5 1014.5 1743.96 1014.5 1295.5Z" stroke="#000000" stroke-width="9.16667" stroke-linecap="butt" stroke-linejoin="miter" stroke-miterlimit="8" stroke-opacity="1" fill="#EBBB1F" fill-rule="evenodd" fill-opacity="1"/><path d="M1761.63 1334.15C1797.6 1318.84 1834.5 1324.6 1844.04 1347.02 1853.58 1369.43 1832.15 1400.02 1796.17 1415.33 1760.2 1430.64 1723.3 1424.87 1713.76 1402.46 1704.22 1380.04 1725.65 1349.46 1761.63 1334.15Z" fill="#000000" fill-rule="evenodd" fill-opacity="1"/><rect x="1810" y="1171" width="38.0001" height="195" fill="#000000" fill-opacity="1"/><path d="M1819.28 1129.32C1822.41 1123.01 1821.52 1129.73 1835.37 1147.68 1849.22 1165.63 1899.71 1188.69 1912.02 1196.39 1924.34 1204.08 1939.33 1208.89 1942.97 1230.41 1946.61 1251.93 1940.31 1272.89 1929.06 1293 1925.63 1271.59 1927.8 1243.5 1909.19 1225.13 1890.57 1206.77 1831.41 1201.22 1816.59 1185.52 1801.76 1169.82 1816.15 1135.62 1819.28 1129.32Z" fill="#000000" fill-rule="evenodd" fill-opacity="1"/><g clip-path="url(#clip1)"><g clip-path="url(#clip2)"><g clip-path="url(#clip3)"><path d="M1825.5 1985.5 1825.5 1898.88C2159.01 1898.88 2431.88 1626.01 2431.88 1292.5L2518.5 1292.5C2518.5 1673.65 2206.65 1985.5 1825.5 1985.5ZM1565.63 1292.5C1565.63 1149.57 1682.57 1032.62 1825.5 1032.62 1968.43 1032.62 2085.38 1149.57 2085.38 1292.5 2085.38 1435.43 1968.43 1552.38 1825.5 1552.38 1682.57 1552.38 1565.63 1435.43 1565.63 1292.5ZM1435.69 1292.5 1349.06 1292.5C1349.06 1030.46 1563.46 816.062 1825.5 816.062L1825.5 902.688C1611.1 902.688 1435.69 1078.1 1435.69 1292.5ZM1219.13 1292.5 1132.5 1292.5C1132.5 911.35 1444.35 599.5 1825.5 599.5L1825.5 686.125C1491.99 686.125 1219.13 958.994 1219.13 1292.5ZM2215.31 1292.5 2301.94 1292.5C2301.94 1554.54 2087.54 1768.94 1825.5 1768.94L1825.5 1682.31C2039.9 1682.31 2215.31 1506.9 2215.31 1292.5ZM1825.5 469.562C1370.72 469.562 1002.56 837.719 1002.56 1292.5 1002.56 1747.28 1370.72 2115.44 1825.5 2115.44 2280.28 2115.44 2648.44 1747.28 2648.44 1292.5 2648.44 837.719 2280.28 469.562 1825.5 469.562Z" fill="#000000" fill-rule="nonzero" fill-opacity="1"/></g></g></g><path d="M258 474.31C258 444.868 281.868 421 311.31 421L1771.69 421C1801.13 421 1825 444.868 1825 474.31L1825 2111.69C1825 2141.13 1801.13 2165 1771.69 2165L311.31 2165C281.868 2165 258 2141.13 258 2111.69Z" stroke="#000000" stroke-width="45.8333" stroke-linecap="butt" stroke-linejoin="miter" stroke-miterlimit="8" stroke-opacity="1" fill="#EBBB1F" fill-rule="evenodd" fill-opacity="1"/><path d="M258 474.31C258 444.868 281.868 421 311.31 421L1771.69 421C1801.13 421 1825 444.868 1825 474.31L1825 2111.69C1825 2141.13 1801.13 2165 1771.69 2165L311.31 2165C281.868 2165 258 2141.13 258 2111.69Z" stroke="#000000" stroke-width="45.8333" stroke-linecap="butt" stroke-linejoin="miter" stroke-miterlimit="8" stroke-opacity="1" fill="#EBBB1F" fill-rule="evenodd" fill-opacity="1"/><path d="M1067.9 1447.45C1167.94 1389.76 1283.08 1402 1325.07 1474.81 1367.05 1547.61 1319.99 1653.41 1219.95 1711.1 1119.91 1768.8 1004.78 1756.55 962.789 1683.74 920.801 1610.94 967.861 1505.15 1067.9 1447.45Z" fill="#000000" fill-rule="evenodd" fill-opacity="1"/><path d="M1148.92 870.121 1261.28 856.483 1342.32 1524.14 1229.96 1537.78Z" fill="#000000" fill-rule="nonzero" fill-opacity="1"/><path d="M1159.23 725.931C1165.86 703.288 1166.01 726.544 1214.34 782.832 1262.68 839.121 1421.31 899.725 1460.86 921.563 1500.4 943.401 1546.65 954.437 1566.31 1026.56 1585.98 1098.69 1576.05 1172.48 1551.17 1245.14 1532.18 1173.32 1526.94 1076.66 1464.38 1020.67 1401.82 964.671 1224.84 966.963 1174.55 918.691 1124.27 870.42 1152.6 748.574 1159.23 725.931Z" fill="#000000" fill-rule="evenodd" fill-opacity="1"/><path d="M810.125 1439.18C908.866 1362.97 1030.23 1354.74 1081.21 1420.78 1132.18 1486.83 1093.46 1602.15 994.718 1678.36 895.976 1754.56 774.608 1762.8 723.634 1696.75 672.66 1630.7 711.383 1515.38 810.125 1439.18Z" fill="#985915" fill-rule="evenodd" fill-opacity="1"/><path d="M820.814 858.466 939.105 827.637 1107.48 1473.7 989.19 1504.53Z" fill="#985915" fill-rule="nonzero" fill-opacity="1"/><path d="M814.147 714.638C818.451 691.277 821.455 714.195 879.962 762.244 938.469 810.294 1115.27 845.543 1160.17 860.969 1205.07 876.395 1255.79 880.129 1285.63 948.236 1315.47 1016.34 1313.92 1090.66 1296.26 1166.19 1267.18 1098.28 1249.74 1003.74 1176.08 958.184 1102.42 912.622 913.739 942.252 854.136 902.412 794.533 862.572 809.842 737.999 814.147 714.638Z" fill="#985915" fill-rule="evenodd" fill-opacity="1"/><text fill="#000000" fill-opacity="1" font-family="Berlin Sans FB,Berlin Sans FB_MSFontService,sans-serif" font-style="normal" font-variant="normal" font-weight="700" font-stretch="normal" font-size="220" text-anchor="start" direction="ltr" writing-mode="lr-tb" unicode-bidi="normal" text-decoration="none" transform="matrix(1 0 0 1 628.218 2065)">I O N I C</text></g></svg>