<svg width="1742" height="1741" xmlns="http://www.w3.org/2000/svg" xmlns:xlink="http://www.w3.org/1999/xlink" overflow="hidden"><defs><clipPath id="clip0"><rect x="1379" y="339" width="1742" height="1741"/></clipPath><clipPath id="clip1"><rect x="1380" y="339" width="1740" height="1742"/></clipPath><clipPath id="clip2"><rect x="1380" y="339" width="1740" height="1742"/></clipPath><clipPath id="clip3"><rect x="1380" y="339" width="1740" height="1742"/></clipPath></defs><g clip-path="url(#clip0)" transform="translate(-1379 -339)"><path d="M1438 1210C1438 761.545 1801.54 398 2250 398 2698.46 398 3062 761.545 3062 1210 3062 1658.46 2698.46 2022 2250 2022 1801.54 2022 1438 1658.46 1438 1210Z" fill="#000000" fill-rule="evenodd" fill-opacity="1"/><g clip-path="url(#clip1)"><g clip-path="url(#clip2)"><g clip-path="url(#clip3)"><path d="M870 1450 870 1377.5C1149.12 1377.5 1377.5 1149.12 1377.5 870L1450 870C1450 1189 1189 1450 870 1450ZM652.5 870C652.5 750.375 750.375 652.5 870 652.5 989.625 652.5 1087.5 750.375 1087.5 870 1087.5 989.625 989.625 1087.5 870 1087.5 750.375 1087.5 652.5 989.625 652.5 870ZM543.75 870 471.25 870C471.25 650.687 650.687 471.25 870 471.25L870 543.75C690.562 543.75 543.75 690.562 543.75 870ZM362.5 870 290 870C290 551 551 290 870 290L870 362.5C590.875 362.5 362.5 590.875 362.5 870ZM1196.25 870 1268.75 870C1268.75 1089.31 1089.31 1268.75 870 1268.75L870 1196.25C1049.44 1196.25 1196.25 1049.44 1196.25 870ZM870 181.25C489.375 181.25 181.25 489.375 181.25 870 181.25 1250.62 489.375 1558.75 870 1558.75 1250.62 1558.75 1558.75 1250.62 1558.75 870 1558.75 489.375 1250.62 181.25 870 181.25Z" fill="#EBBB1F" fill-rule="nonzero" fill-opacity="1" transform="matrix(1 0 0 1 1380 340)"/></g></g></g><path d="M2185.27 1270.98C2221.24 1255.67 2258.14 1261.43 2267.68 1283.85 2277.22 1306.27 2255.79 1336.85 2219.81 1352.16 2183.84 1367.47 2146.94 1361.71 2137.4 1339.29 2127.86 1316.87 2149.29 1286.29 2185.27 1270.98Z" fill="#EBBB1F" fill-rule="evenodd" fill-opacity="1"/><rect x="2233" y="1108" width="38.0002" height="195" fill="#EBBB1F" fill-opacity="1"/><path d="M2242.35 1066.32C2245.51 1060.01 2244.6 1066.73 2258.56 1084.68 2272.51 1102.63 2323.38 1125.69 2335.79 1133.39 2348.19 1141.08 2363.29 1145.89 2366.96 1167.41 2370.63 1188.93 2364.28 1209.89 2352.95 1230 2349.49 1208.59 2351.68 1180.5 2332.93 1162.13 2314.18 1143.77 2254.57 1138.22 2239.64 1122.52 2224.7 1106.82 2239.2 1072.62 2242.35 1066.32Z" fill="#EBBB1F" fill-rule="evenodd" fill-opacity="1"/></g></svg>