<svg width="1632" height="1627" xmlns="http://www.w3.org/2000/svg" xmlns:xlink="http://www.w3.org/1999/xlink" overflow="hidden"><defs><clipPath id="clip0"><rect x="1040" y="371" width="1632" height="1627"/></clipPath><clipPath id="clip1"><rect x="1251" y="522" width="1211" height="1211"/></clipPath><clipPath id="clip2"><rect x="1251" y="522" width="1211" height="1211"/></clipPath><clipPath id="clip3"><rect x="1251" y="522" width="1211" height="1211"/></clipPath></defs><g clip-path="url(#clip0)" transform="translate(-1040 -371)"><path d="M1045 1186C1045 737.545 1408.54 374 1857 374 2305.46 374 2669 737.545 2669 1186 2669 1634.46 2305.46 1998 1857 1998 1408.54 1998 1045 1634.46 1045 1186Z" fill="#EBBB1F" fill-rule="evenodd" fill-opacity="1"/><g clip-path="url(#clip1)"><g clip-path="url(#clip2)"><g clip-path="url(#clip3)"><path d="M2041.24 1200.1C2095.55 1219.58 2146.93 1241.79 2189.48 1276.59 2209.85 1292.49 2221.97 1316.72 2222.46 1342.56L2244.59 1523.98C2246.38 1537.69 2240.35 1551.25 2228.98 1559.11 2207.29 1573.13 2183.98 1584.44 2159.55 1592.8L2159.55 1619.37C2188.97 1609.93 2217.03 1596.7 2243.05 1580.03 2262.27 1566.9 2272.54 1544.12 2269.62 1521.02L2247.65 1341.39C2246.84 1308.31 2231.28 1277.33 2205.23 1256.93 2159.51 1219.52 2105.22 1196.22 2048.11 1175.81L1986.08 1150.35C1976.6 1146.49 1970.41 1137.26 1970.44 1127.03L1970.44 1089.88C2018 1054.29 2046.03 998.375 2046.09 938.968L2046.09 902.431C2052.61 905.123 2059.58 906.581 2066.64 906.731 2073.6 906.731 2079.25 901.088 2079.25 894.127 2079.25 892.773 2079.03 891.43 2078.6 890.145L2065.84 851.829C2060.27 834.339 2055.81 816.516 2052.49 798.464 2040.06 737.523 1999.98 685.838 1944.04 658.636 1935.07 653.961 1924.23 654.76 1916.04 660.698L1912.24 655.055C1907.08 647.076 1898.91 641.522 1889.59 639.656 1792.03 621.312 1697.95 683.248 1665.89 781.36 1660.39 798.47 1657.59 816.328 1657.57 834.298L1657.45 853.131C1657.36 870.756 1653.73 888.185 1646.77 904.378L1623.29 959.18C1620.55 965.578 1623.51 972.987 1629.91 975.73 1631.48 976.403 1633.17 976.75 1634.88 976.75 1635.86 976.751 1636.84 976.635 1637.79 976.406 1639.9 975.902 1651.89 973.003 1670.27 967.783 1677.84 1016.45 1704.12 1060.23 1743.5 1089.8L1743.5 1127.03C1743.53 1137.26 1737.34 1146.49 1727.86 1150.35L1665.4 1175.98C1608.48 1196.35 1554.39 1219.59 1508.97 1256.75 1482.81 1277.16 1467.17 1308.22 1466.34 1341.39L1444.37 1521.11C1441.49 1544.19 1451.76 1566.93 1470.98 1580.03 1497.01 1596.71 1525.1 1609.94 1554.54 1619.39L1554.54 1592.82C1530.09 1584.46 1506.75 1573.14 1485.04 1559.11 1473.69 1551.28 1467.65 1537.76 1469.41 1524.07L1491.43 1343.83 1491.52 1342.57C1492.03 1316.65 1504.23 1292.34 1524.71 1276.44 1567.07 1241.78 1618.4 1219.61 1672.69 1200.13L1698.9 1190.94C1733 1214.45 1792.6 1228.88 1857 1228.88 1921.38 1228.88 1980.97 1214.46 2015.07 1190.94ZM1669.94 914.314C1678.23 895.032 1682.56 874.278 1682.67 853.287L1682.78 834.46C1682.78 819.094 1685.17 803.822 1689.85 789.188 1714.77 712.899 1781.36 661.646 1855.54 661.646 1865.41 661.663 1875.25 662.596 1884.95 664.434 1887.61 665.098 1889.9 666.786 1891.33 669.13L1902.57 685.82C1906.46 691.594 1914.29 693.123 1920.07 689.235 1920.26 689.105 1920.45 688.969 1920.64 688.829L1930.78 681.156C1931.19 680.812 1931.75 680.714 1932.24 680.904 1981.6 704.362 2017 749.735 2027.75 803.32L2027.76 803.32C2031.28 822.428 2036.01 841.292 2041.92 859.8L2047.08 875.284C2020.41 860.181 1989.02 820.909 1972.21 794.113 1970.03 790.628 1966.28 788.427 1962.17 788.217 1958.06 787.978 1954.09 789.795 1951.58 793.067 1888.53 874.132 1720.16 927.533 1656.65 945.331ZM1694.77 960.53C1768.89 937.736 1896.11 890.806 1960.3 821.659 1977.14 846.604 1997.55 868.941 2020.88 887.957L2020.88 938.965C2020.94 1029.41 1947.66 1102.77 1857.22 1102.83 1775.03 1102.87 1705.54 1042 1694.77 960.527ZM1857.01 1203.66C1812.29 1204.76 1767.87 1195.99 1726.92 1177.98L1737.43 1173.66C1756.38 1165.94 1768.75 1147.49 1768.7 1127.03L1768.7 1105.88C1823.84 1135.35 1890.03 1135.42 1945.23 1106.07L1945.23 1127.03C1945.18 1147.49 1957.55 1165.94 1976.5 1173.67L1987.05 1178C1946.11 1195.99 1901.71 1204.76 1857.01 1203.66Z" fill="#000000" fill-rule="nonzero" fill-opacity="1"/><path d="M2134.34 1349.08C2134.27 1324.37 2114.18 1304.39 2089.47 1304.46 2089.43 1304.46 2089.39 1304.46 2089.34 1304.46L1624.38 1304.46C1599.75 1304.48 1579.79 1324.45 1579.76 1349.08L1579.76 1634.56 1491.53 1634.56 1491.53 1663.22C1491.69 1687.79 1511.58 1707.65 1536.15 1707.79L2178 1707.79C2202.56 1707.63 2222.43 1687.74 2222.57 1663.17L2222.57 1634.56 2134.34 1634.56ZM2197.36 1659.77 2197.36 1663.12C2197.29 1673.83 2188.65 1682.49 2177.95 1682.58L1536.2 1682.58C1525.5 1682.52 1516.83 1673.87 1516.74 1663.17L1516.74 1659.77 1604.96 1659.77 1604.96 1349.08C1604.98 1338.36 1613.66 1329.68 1624.37 1329.67L2089.72 1329.67C2100.44 1329.68 2109.12 1338.36 2109.13 1349.08L2109.13 1659.77Z" fill="#000000" fill-rule="nonzero" fill-opacity="1"/><path d="M1774.01 1430.88 1703.3 1501.59 1774.01 1572.3 1791.79 1554.52 1738.97 1501.59 1791.79 1448.65 1774.01 1430.88Z" fill="#000000" fill-rule="nonzero" fill-opacity="1"/><path d="M1921.86 1448.65 1974.67 1501.59 1921.86 1554.52 1939.63 1572.3 2010.34 1501.59 1939.63 1430.88 1921.86 1448.65Z" fill="#000000" fill-rule="nonzero" fill-opacity="1"/><path d="M1815.48 1571.41 1838.8 1581.12 1897.79 1438.44 1874.6 1428.74 1815.48 1571.41Z" fill="#000000" fill-rule="nonzero" fill-opacity="1"/></g></g></g></g></svg>