<svg width="1742" height="1746" xmlns="http://www.w3.org/2000/svg" xmlns:xlink="http://www.w3.org/1999/xlink" overflow="hidden"><defs><clipPath id="clip0"><rect x="939" y="293" width="1742" height="1746"/></clipPath></defs><g clip-path="url(#clip0)" transform="translate(-939 -293)"><path d="M943 450.979C943 364.282 1013.28 294 1099.98 294L2520.02 294C2606.72 294 2677 364.282 2677 450.979L2677 1882.02C2677 1968.72 2606.72 2039 2520.02 2039L1099.98 2039C1013.28 2039 943 1968.72 943 1882.02Z" fill="#E6771D" fill-rule="evenodd" fill-opacity="1"/><path d="M943 450.979C943 364.282 1013.28 294 1099.98 294L2520.02 294C2606.72 294 2677 364.282 2677 450.979L2677 1882.02C2677 1968.72 2606.72 2039 2520.02 2039L1099.98 2039C1013.28 2039 943 1968.72 943 1882.02Z" fill="#E6771D" fill-rule="evenodd" fill-opacity="1"/><path d="M1181 642.887C1181 579.989 1231.99 529 1294.89 529L2325.11 529C2388.01 529 2439 579.989 2439 642.887L2439 1690.11C2439 1753.01 2388.01 1804 2325.11 1804L1294.89 1804C1231.99 1804 1181 1753.01 1181 1690.11Z" fill="#000000" fill-rule="evenodd" fill-opacity="1"/><path d="M1181 642.887C1181 579.989 1231.99 529 1294.89 529L2325.11 529C2388.01 529 2439 579.989 2439 642.887L2439 1690.11C2439 1753.01 2388.01 1804 2325.11 1804L1294.89 1804C1231.99 1804 1181 1753.01 1181 1690.11Z" fill="#000000" fill-rule="evenodd" fill-opacity="1"/><path d="M1305 728.526C1305 677.978 1345.98 637 1396.53 637L2224.47 637C2275.02 637 2316 677.978 2316 728.526L2316 1604.47C2316 1655.02 2275.02 1696 2224.47 1696L1396.53 1696C1345.98 1696 1305 1655.02 1305 1604.47Z" fill="#E6771D" fill-rule="evenodd" fill-opacity="1"/><path d="M1305 728.526C1305 677.978 1345.98 637 1396.53 637L2224.47 637C2275.02 637 2316 677.978 2316 728.526L2316 1604.47C2316 1655.02 2275.02 1696 2224.47 1696L1396.53 1696C1345.98 1696 1305 1655.02 1305 1604.47Z" fill="#E6771D" fill-rule="evenodd" fill-opacity="1"/><path d="M1364.98 1332.04 2276.57 363.554 2626.39 692.828 1714.81 1661.31Z" fill="#E6771D" fill-rule="nonzero" fill-opacity="1"/><path d="M1866.29 1331.42 1571.09 1414.13 1655.9 1119.52Z" fill="#000000" fill-rule="evenodd" fill-opacity="1"/><path d="M2165.44 610.222 2375.85 823.1 1902.75 1290.7 1692.34 1077.83Z" fill="#000000" fill-rule="nonzero" fill-opacity="1"/><path d="M2352.84 517.24 2471.71 636.246C2498.87 663.436 2498.85 707.495 2471.66 734.654L2418.91 787.342 2201.69 569.871 2254.44 517.184C2281.63 490.025 2325.68 490.05 2352.84 517.24Z" fill="#000000" fill-rule="evenodd" fill-opacity="1"/></g></svg>