<svg width="1632" height="1682" xmlns="http://www.w3.org/2000/svg" xmlns:xlink="http://www.w3.org/1999/xlink" overflow="hidden"><defs><clipPath id="clip0"><rect x="1434" y="311" width="1632" height="1682"/></clipPath><clipPath id="clip1"><rect x="1463" y="313" width="1575" height="1574"/></clipPath><clipPath id="clip2"><rect x="1463" y="313" width="1575" height="1574"/></clipPath><clipPath id="clip3"><rect x="1463" y="313" width="1575" height="1574"/></clipPath></defs><g clip-path="url(#clip0)" transform="translate(-1434 -311)"><path d="M1438 1178C1438 729.545 1801.54 366 2250 366 2698.46 366 3062 729.545 3062 1178 3062 1626.46 2698.46 1990 2250 1990 1801.54 1990 1438 1626.46 1438 1178Z" fill="#000000" fill-rule="evenodd" fill-opacity="1"/><g clip-path="url(#clip1)"><g clip-path="url(#clip2)"><g clip-path="url(#clip3)"><path d="M786.5 196.625 98.3125 852.042 172.047 914.306 786.5 330.985 1400.95 914.306 1474.69 852.042Z" fill="#EBBB1F" fill-rule="nonzero" fill-opacity="1" transform="matrix(1.00064 0 0 1 1463 314)"/><path d="M294.938 889.728 294.938 1376.38 688.188 1376.38 688.188 966.74 884.812 966.74 884.812 1376.38 1278.06 1376.38 1278.06 889.728 786.5 422.744 294.938 889.728Z" fill="#EBBB1F" fill-rule="nonzero" fill-opacity="1" transform="matrix(1.00064 0 0 1 1463 314)"/></g></g></g></g></svg>