<svg width="1732" height="1632" xmlns="http://www.w3.org/2000/svg" xmlns:xlink="http://www.w3.org/1999/xlink" overflow="hidden"><defs><clipPath id="clip0"><rect x="394" y="586" width="1732" height="1632"/></clipPath><clipPath id="clip1"><rect x="617" y="650" width="1506" height="1505"/></clipPath><clipPath id="clip2"><rect x="617" y="650" width="1506" height="1505"/></clipPath><clipPath id="clip3"><rect x="617" y="650" width="1506" height="1505"/></clipPath></defs><g clip-path="url(#clip0)" transform="translate(-394 -586)"><path d="M396 1402.5C396 953.769 759.545 590 1208 590 1656.46 590 2020 953.769 2020 1402.5 2020 1851.23 1656.46 2215 1208 2215 759.545 2215 396 1851.23 396 1402.5Z" fill="#000000" fill-rule="evenodd" fill-opacity="1"/><g clip-path="url(#clip1)"><g clip-path="url(#clip2)"><g clip-path="url(#clip3)"><path d="M569.313 1426.61 156.771 1255.73 156.771 235.141 569.313 64.2604 569.313 1426.61Z" fill="#EBBB1F" fill-rule="nonzero" fill-opacity="1" transform="matrix(1.00066 0 0 1 617 650)"/><path d="M988.722 405.503 988.722 601.467 632.022 601.467 632.022 852.3 988.722 852.3 988.722 1048.26 1364.97 726.884 988.722 405.503Z" fill="#EBBB1F" fill-rule="nonzero" fill-opacity="1" transform="matrix(1.00066 0 0 1 617 650)"/><path d="M800.597 538.759 894.66 538.759 894.66 225.217 632.022 225.217 632.022 319.279 800.597 319.279 800.597 538.759Z" fill="#EBBB1F" fill-rule="nonzero" fill-opacity="1" transform="matrix(1.00066 0 0 1 617 650)"/><path d="M800.597 915.009 800.597 1165.84 632.022 1165.84 632.022 1259.9 894.66 1259.9 894.66 915.009 800.597 915.009Z" fill="#EBBB1F" fill-rule="nonzero" fill-opacity="1" transform="matrix(1.00066 0 0 1 617 650)"/></g></g></g></g></svg>