<svg width="1742" height="1746" xmlns="http://www.w3.org/2000/svg" xmlns:xlink="http://www.w3.org/1999/xlink" overflow="hidden"><defs><clipPath id="clip0"><rect x="939" y="293" width="1742" height="1746"/></clipPath></defs><g clip-path="url(#clip0)" transform="translate(-939 -293)"><path d="M943 450.979C943 364.282 1013.28 294 1099.98 294L2520.02 294C2606.72 294 2677 364.282 2677 450.979L2677 1882.02C2677 1968.72 2606.72 2039 2520.02 2039L1099.98 2039C1013.28 2039 943 1968.72 943 1882.02Z" fill="#E6771D" fill-rule="evenodd" fill-opacity="1"/><path d="M943 450.979C943 364.282 1013.28 294 1099.98 294L2520.02 294C2606.72 294 2677 364.282 2677 450.979L2677 1882.02C2677 1968.72 2606.72 2039 2520.02 2039L1099.98 2039C1013.28 2039 943 1968.72 943 1882.02Z" fill="#E6771D" fill-rule="evenodd" fill-opacity="1"/><path d="M1259 1173.5C1259 1047.86 1360.86 946 1486.5 946 1612.14 946 1714 1047.86 1714 1173.5 1714 1299.14 1612.14 1401 1486.5 1401 1360.86 1401 1259 1299.14 1259 1173.5Z" fill="#000000" fill-rule="evenodd" fill-opacity="1"/><path d="M1907 798C1907 672.631 2008.63 571 2134 571 2259.37 571 2361 672.631 2361 798 2361 923.369 2259.37 1025 2134 1025 2008.63 1025 1907 923.369 1907 798Z" fill="#000000" fill-rule="evenodd" fill-opacity="1"/><path d="M1888 1549.5C1888 1423.86 1989.86 1322 2115.5 1322 2241.14 1322 2343 1423.86 2343 1549.5 2343 1675.14 2241.14 1777 2115.5 1777 1989.86 1777 1888 1675.14 1888 1549.5Z" fill="#000000" fill-rule="evenodd" fill-opacity="1"/><path d="M1547.74 1076.42 2006.63 797.089 2072.54 905.37 1613.65 1184.7Z" fill="#000000" fill-rule="nonzero" fill-opacity="1"/><path d="M1618.6 1166.44 2074.18 1451.15 2007 1558.65 1551.42 1273.94Z" fill="#000000" fill-rule="nonzero" fill-opacity="1"/></g></svg>